<svg width="84" height="30" viewBox="0 0 84 30" fill="none" xmlns="http://www.w3.org/2000/svg">
<rect width="83" height="29" fill="white"/>
<g opacity="0.800003">
<g opacity="0.800003">
<path opacity="0.800003" d="M23.5882 5.23601L21.8601 6.94487L29.1201 14.1244C30.1724 15.1647 31.8879 15.3642 33.0396 14.4325C34.3642 13.3613 34.4369 11.426 33.2576 10.2598L28.1773 5.23601C26.9099 3.98305 24.8553 3.98305 23.5882 5.23601Z" fill="#F2436D"/>
</g>
</g>
<g opacity="0.800003">
<g opacity="0.800003">
<path opacity="0.800003" d="M13.599 13.2621C13.1308 13.725 12.3722 13.7247 11.904 13.2621C11.4358 12.7991 11.4358 12.0489 11.904 11.586C12.3722 11.123 13.1311 11.123 13.599 11.586C14.0671 12.0489 14.0671 12.7994 13.599 13.2621ZM15.5428 5.23601L10.7455 9.97994C9.47806 11.2332 9.47838 13.2646 10.7455 14.5176L19.7339 23.406C20.7862 24.4466 22.5016 24.6461 23.6534 23.7144C24.9779 22.6433 25.0507 20.7079 23.8714 19.5417L18.7907 14.5179C17.5236 13.2646 17.5236 11.2329 18.7907 9.97994L21.86 6.94487L20.1315 5.23601C18.8645 3.98305 16.8099 3.98305 15.5428 5.23601Z" fill="#C73650"/>
</g>
</g>
<g filter="url(#filter0_d)">
<path d="M43.6454 16.5684H38.5308L37.4721 19.0749H36.0559L40.4144 9.04894H41.7755L46.1478 19.0749H44.7041L43.6454 16.5684ZM43.1642 15.4226L41.0881 10.5099L39.012 15.4226H43.1642Z" fill="#E298A5"/>
<path d="M50.6528 19.1895C49.6903 19.1895 48.8195 18.9698 48.0404 18.5306C47.2705 18.0818 46.6655 17.4707 46.2255 16.6973C45.7856 15.9143 45.5656 15.0359 45.5656 14.0619C45.5656 13.088 45.7856 12.2143 46.2255 11.4408C46.6655 10.6579 47.2751 10.0468 48.0542 9.60753C48.8333 9.15875 49.7041 8.93436 50.6665 8.93436C51.4181 8.93436 52.1056 9.06804 52.7289 9.33539C53.3522 9.5932 53.8838 9.97992 54.3238 10.4955L53.4301 11.3979C52.706 10.6053 51.8031 10.2091 50.7215 10.2091C50.0066 10.2091 49.3603 10.3762 48.7829 10.7104C48.2054 11.0446 47.7517 11.5077 47.4217 12.0997C47.1009 12.6821 46.9405 13.3362 46.9405 14.0619C46.9405 14.7876 47.1009 15.4464 47.4217 16.0385C47.7517 16.6209 48.2054 17.0792 48.7829 17.4134C49.3603 17.7476 50.0066 17.9147 50.7215 17.9147C51.7939 17.9147 52.6968 17.5137 53.4301 16.7116L54.3238 17.614C53.8838 18.1296 53.3476 18.5211 52.7151 18.7884C52.0918 19.0558 51.4044 19.1895 50.6528 19.1895Z" fill="#E298A5"/>
<path d="M64.1084 19.0749L64.0947 11.7703L60.6162 17.8574H59.9837L56.5052 11.8132V19.0749H55.1852V9.04894H56.3127L60.3274 16.0957L64.2872 9.04894H65.4146L65.4284 19.0749H64.1084Z" fill="#E298A5"/>
<path d="M74.2014 17.8288V19.0749H67.2168V9.04894H74.0089V10.295H68.5917V13.3744H73.4177V14.5919H68.5917V17.8288H74.2014Z" fill="#E298A5"/>
</g>
<defs>
<filter id="filter0_d" x="27.0559" y="0.934357" width="56.1455" height="28.2551" filterUnits="userSpaceOnUse" color-interpolation-filters="sRGB">
<feFlood flood-opacity="0" result="BackgroundImageFix"/>
<feColorMatrix in="SourceAlpha" type="matrix" values="0 0 0 0 0 0 0 0 0 0 0 0 0 0 0 0 0 0 127 0"/>
<feOffset dy="1"/>
<feGaussianBlur stdDeviation="4.5"/>
<feColorMatrix type="matrix" values="0 0 0 0 0.141667 0 0 0 0 0.0324653 0 0 0 0 0.0324653 0 0 0 0.19 0"/>
<feBlend mode="normal" in2="BackgroundImageFix" result="effect1_dropShadow"/>
<feBlend mode="normal" in="SourceGraphic" in2="effect1_dropShadow" result="shape"/>
</filter>
</defs>
</svg>
